<?xml version="1.0" encoding="UTF-8"?>
<svg xmlns="http://www.w3.org/2000/svg" xmlns:xlink="http://www.w3.org/1999/xlink" width="256pt" height="256pt" viewBox="0 0 256 256" version="1.1">
<defs>
<linearGradient id="linear0" gradientUnits="userSpaceOnUse" x1="59.99594" y1="130.55031" x2="59.99594" y2="148.06531" gradientTransform="matrix(1.132743,0,0,1.132743,0,0)">
<stop offset="0" style="stop-color:rgb(100%,100%,100%);stop-opacity:1;"/>
<stop offset="1" style="stop-color:rgb(45.882353%,45.490196%,79.607843%);stop-opacity:1;"/>
</linearGradient>
<linearGradient id="linear1" gradientUnits="userSpaceOnUse" x1="131.15063" y1="147.465" x2="131.15063" y2="156.68156" gradientTransform="matrix(1.132743,0,0,1.132743,0,0)">
<stop offset="0" style="stop-color:rgb(100%,100%,100%);stop-opacity:1;"/>
<stop offset="1" style="stop-color:rgb(45.882353%,45.490196%,79.607843%);stop-opacity:1;"/>
</linearGradient>
<linearGradient id="linear2" gradientUnits="userSpaceOnUse" x1="157.54672" y1="161.025" x2="157.54672" y2="177.83375" gradientTransform="matrix(1.132743,0,0,1.132743,0,0)">
<stop offset="0" style="stop-color:rgb(100%,100%,100%);stop-opacity:1;"/>
<stop offset="1" style="stop-color:rgb(45.882353%,45.490196%,79.607843%);stop-opacity:1;"/>
</linearGradient>
<linearGradient id="linear3" gradientUnits="userSpaceOnUse" x1="113.01059" y1="28.24647" x2="113.01059" y2="194.21875" gradientTransform="matrix(1.132743,0,0,1.132743,0,0)">
<stop offset="0" style="stop-color:rgb(63.921569%,63.137255%,100%);stop-opacity:1;"/>
<stop offset="1" style="stop-color:rgb(22.745098%,21.960784%,59.215686%);stop-opacity:1;"/>
</linearGradient>
</defs>
<g id="surface1023460">
<path style=" stroke:none;fill-rule:nonzero;fill:url(#linear0);" d="M 96 153.28125 C 83.398438 158.320312 66.039062 165.199219 63.640625 166 C 62.28125 166.558594 61 167.121094 59.839844 167.71875 L 39.921875 161.480469 L 78.71875 147.878906 Z M 96 153.28125 "/>
<path style=" stroke:none;fill-rule:nonzero;fill:url(#linear1);" d="M 157.121094 172.398438 C 148.480469 174.878906 143.078125 176.519531 140 177.480469 L 140 167.039062 Z M 157.121094 172.398438 "/>
<path style=" stroke:none;fill-rule:nonzero;fill:url(#linear2);" d="M 206.960938 188 L 206.039062 188.320312 L 167.640625 201.441406 L 149.960938 195.921875 C 162.921875 191.441406 183.121094 184.480469 189.078125 182.398438 Z M 206.960938 188 "/>
<path style=" stroke:none;fill-rule:nonzero;fill:url(#linear3);" d="M 243.957031 170.777344 C 243.335938 163.585938 236.316406 158 222.574219 153.726562 C 209.824219 149.457031 196.171875 147.554688 181.960938 148.085938 C 169.257812 148.574219 156.835938 150.617188 145.207031 154.101562 L 140.015625 155.429688 L 139.90625 76.5625 C 139.953125 76.519531 140.367188 76.3125 141.003906 76.3125 C 146.101562 76.3125 148.003906 81.640625 148.003906 85 L 148.003906 131.960938 C 148.003906 133.214844 148.597656 134.402344 149.605469 135.160156 C 150.265625 135.65625 156.453125 140 169.992188 140 C 181.855469 140 196 133.40625 196 102 C 196 76.390625 182.65625 57.808594 157.417969 48.257812 C 138.890625 41.246094 102.480469 32.480469 100.9375 32.109375 C 99.742188 31.820312 98.488281 32.097656 97.523438 32.859375 C 96.566406 33.617188 96.003906 34.773438 96.003906 36 L 96.003906 133.199219 L 82.363281 138.152344 L 38.90625 153.230469 L 31.183594 156.074219 C 19.1875 161.457031 12.023438 169.300781 12.023438 177.058594 C 12.023438 185.898438 15.4375 193.019531 21.882812 197.660156 C 27.785156 201.902344 36.023438 204.015625 46.371094 204.015625 C 58.707031 204.015625 74.035156 201.003906 91.917969 195.003906 C 92.945312 194.667969 94.476562 194.148438 96.003906 193.628906 L 96.003906 204.925781 C 96.003906 206.679688 97.148438 208.226562 98.828125 208.746094 L 134.824219 219.828125 C 135.210938 219.941406 135.605469 220 136 220 C 136.222656 220 136.4375 219.933594 136.65625 219.894531 C 136.878906 219.9375 137.097656 220 137.328125 220 C 137.753906 220 138.1875 219.933594 138.613281 219.789062 L 218.742188 192.449219 L 224.574219 189.828125 C 234.019531 186.296875 244.757812 180.945312 243.957031 170.777344 Z M 140.007812 185.898438 C 142.355469 185.125 150.847656 182.398438 169.867188 177.140625 C 182.609375 173.617188 189.996094 172.46875 194.007812 172.132812 C 192.011719 172.882812 189.589844 173.757812 186.730469 174.742188 C 179.929688 177.113281 150.738281 187.15625 140.007812 190.847656 Z M 96.003906 168.058594 C 91.554688 169.945312 81.925781 173.996094 75.15625 176.621094 C 63.203125 181.339844 58.15625 180.019531 56.617188 179.34375 C 57.671875 178.179688 60.277344 176.011719 66.367188 173.507812 C 68.894531 172.710938 86.636719 165.652344 96.003906 161.910156 Z M 89.398438 187.410156 C 59.480469 197.457031 37.152344 198.789062 26.554688 191.164062 C 22.160156 188.003906 20.023438 183.390625 20.023438 177.058594 C 20.023438 173.585938 24.539062 167.820312 34.199219 163.476562 L 85.042969 145.691406 L 96.003906 141.707031 L 96.003906 153.292969 C 83.410156 158.332031 66.046875 165.214844 63.648438 165.984375 C 53.890625 169.984375 48.492188 174.566406 48.03125 179.234375 C 47.839844 181.1875 48.5625 183.007812 49.988281 184.230469 C 51.207031 185.578125 54.300781 188.003906 60.820312 188.003906 C 65.015625 188.003906 70.628906 187 78.066406 184.0625 C 83.601562 181.921875 90.992188 178.847656 96 176.738281 L 96 185.164062 C 93.882812 185.894531 91.03125 186.878906 89.398438 187.410156 Z M 132 210.585938 L 104.003906 201.972656 L 103.902344 41.105469 C 114.660156 43.789062 140.480469 50.40625 154.585938 55.742188 C 176.757812 64.128906 188 79.695312 188 102 C 188 128.890625 177.71875 132 169.988281 132 C 162.734375 132 158.203125 130.542969 156 129.585938 L 156 85 C 156 76.796875 150.390625 68.3125 141 68.3125 C 135.785156 68.3125 132 71.886719 132 76.8125 Z M 221.539062 182.433594 L 215.816406 185.015625 L 140 210.859375 L 140.003906 199.308594 C 147.296875 196.800781 181.867188 184.902344 189.351562 182.304688 C 202.675781 177.695312 209.363281 175.382812 207.828125 169.59375 C 207.707031 169.136719 207.503906 168.699219 207.226562 168.3125 C 205.546875 165.933594 203.144531 164.691406 199.550781 164.222656 C 198.351562 163.960938 191.210938 162.9375 167.734375 169.433594 C 152.648438 173.605469 144.183594 176.171875 140.011719 177.492188 L 140.015625 163.683594 L 147.347656 161.808594 C 158.492188 158.472656 170.242188 156.546875 182.269531 156.074219 C 195.515625 155.59375 208.199219 157.34375 220.125 161.339844 C 234.03125 165.660156 235.851562 169.855469 235.988281 171.429688 C 236.167969 173.765625 234.894531 177.429688 221.539062 182.433594 Z M 221.539062 182.433594 "/>
</g>
</svg>
