<?xml version="1.0" encoding="UTF-8"?>
<svg xmlns="http://www.w3.org/2000/svg" xmlns:xlink="http://www.w3.org/1999/xlink" width="256pt" height="256pt" viewBox="0 0 256 256" version="1.1">
<defs>
<linearGradient id="linear0" gradientUnits="userSpaceOnUse" x1="204.8125" y1="60.03125" x2="204.8125" y2="88.28125" gradientTransform="matrix(1.132743,0,0,1.132743,0,0)">
<stop offset="0" style="stop-color:rgb(100%,91.372549%,90.588235%);stop-opacity:1;"/>
<stop offset="1" style="stop-color:rgb(86.666667%,43.137255%,58.823529%);stop-opacity:1;"/>
</linearGradient>
<linearGradient id="linear1" gradientUnits="userSpaceOnUse" x1="165.96875" y1="60.03125" x2="165.96875" y2="88.28125" gradientTransform="matrix(1.132743,0,0,1.132743,0,0)">
<stop offset="0" style="stop-color:rgb(100%,91.372549%,90.588235%);stop-opacity:1;"/>
<stop offset="1" style="stop-color:rgb(86.666667%,43.137255%,58.823529%);stop-opacity:1;"/>
</linearGradient>
<linearGradient id="linear2" gradientUnits="userSpaceOnUse" x1="165.96875" y1="60.25372" x2="165.96875" y2="165.25544" gradientTransform="matrix(1.132743,0,0,1.132743,0,0)">
<stop offset="0" style="stop-color:rgb(100%,50.588235%,46.666667%);stop-opacity:1;"/>
<stop offset="1" style="stop-color:rgb(69.411765%,16.470588%,35.686275%);stop-opacity:1;"/>
</linearGradient>
<linearGradient id="linear3" gradientUnits="userSpaceOnUse" x1="204.8125" y1="60.25372" x2="204.8125" y2="165.25544" gradientTransform="matrix(1.132743,0,0,1.132743,0,0)">
<stop offset="0" style="stop-color:rgb(100%,50.588235%,46.666667%);stop-opacity:1;"/>
<stop offset="1" style="stop-color:rgb(69.411765%,16.470588%,35.686275%);stop-opacity:1;"/>
</linearGradient>
<linearGradient id="linear4" gradientUnits="userSpaceOnUse" x1="74.15625" y1="60.03125" x2="74.15625" y2="165.96875" gradientTransform="matrix(1.132743,0,0,1.132743,0,0)">
<stop offset="0" style="stop-color:rgb(100%,50.588235%,46.666667%);stop-opacity:1;"/>
<stop offset="1" style="stop-color:rgb(69.411765%,16.470588%,35.686275%);stop-opacity:1;"/>
</linearGradient>
</defs>
<g id="surface1023435">
<path style=" stroke:none;fill-rule:nonzero;fill:url(#linear0);" d="M 232 68 C 223.164062 68 216 75.164062 216 84 C 216 92.835938 223.164062 100 232 100 C 240.835938 100 248 92.835938 248 84 C 248 75.164062 240.835938 68 232 68 Z M 232 68 "/>
<path style=" stroke:none;fill-rule:nonzero;fill:url(#linear1);" d="M 188 68 C 179.164062 68 172 75.164062 172 84 C 172 92.835938 179.164062 100 188 100 C 196.835938 100 204 92.835938 204 84 C 204 75.164062 196.835938 68 188 68 Z M 188 68 "/>
<path style=" stroke:none;fill-rule:nonzero;fill:url(#linear2);" d="M 200 188 L 176 188 C 173.789062 188 172 186.210938 172 184 L 172 112 C 172 109.789062 173.789062 108 176 108 L 200 108 C 202.210938 108 204 109.789062 204 112 L 204 184 C 204 186.210938 202.210938 188 200 188 Z M 180 180 L 196 180 L 196 116 L 180 116 Z M 180 180 "/>
<path style=" stroke:none;fill-rule:nonzero;fill:url(#linear3);" d="M 244 188 L 220 188 C 217.789062 188 216 186.210938 216 184 L 216 112 C 216 109.789062 217.789062 108 220 108 L 244 108 C 246.210938 108 248 109.789062 248 112 L 248 184 C 248 186.210938 246.210938 188 244 188 Z M 224 180 L 240 180 L 240 116 L 224 116 Z M 224 180 "/>
<path style=" stroke:none;fill-rule:nonzero;fill:url(#linear4);" d="M 117.183594 188 C 99.550781 188 95.730469 166.539062 95.574219 165.625 L 84 120.984375 L 72.351562 165.964844 C 72.269531 166.539062 68.449219 188 50.816406 188 C 33.1875 188 29.367188 166.578125 29.210938 165.667969 L 4.140625 73.042969 C 3.8125 71.84375 4.0625 70.558594 4.824219 69.570312 C 5.585938 68.578125 6.753906 68 8 68 L 31.5 68 C 33.339844 68 34.945312 69.257812 35.382812 71.042969 L 51.902344 138.195312 C 55.84375 122.21875 61.675781 98.316406 64.035156 87.394531 C 68.457031 68.21875 82.855469 68 83.464844 68 C 88.832031 68 99.90625 72.164062 103.421875 87.929688 C 105.796875 98.566406 111.914062 122.605469 116.011719 138.527344 L 132.613281 71.039062 C 133.054688 69.257812 134.660156 68 136.5 68 L 160 68 C 161.246094 68 162.414062 68.578125 163.175781 69.570312 C 163.933594 70.558594 164.1875 71.84375 163.859375 73.042969 L 138.703125 166.003906 C 138.632812 166.539062 134.8125 188 117.183594 188 Z M 84 101.039062 C 85.824219 101.039062 87.414062 102.277344 87.871094 104.035156 L 103.390625 163.957031 C 103.488281 164.441406 106.316406 180 117.183594 180 C 128.046875 180 130.875 164.441406 130.902344 164.285156 L 154.773438 76 L 139.636719 76 L 119.996094 155.835938 C 119.558594 157.613281 117.972656 158.867188 116.140625 158.878906 C 116.132812 158.878906 116.121094 158.878906 116.113281 158.878906 C 114.292969 158.878906 112.699219 157.652344 112.238281 155.886719 C 112.113281 155.394531 99.335938 106.347656 95.617188 89.671875 C 92.601562 76.15625 83.554688 76 83.464844 76 C 82.632812 76.027344 74.722656 76.632812 71.84375 89.136719 C 68.132812 106.308594 55.890625 155.355469 55.765625 155.847656 C 55.324219 157.628906 53.71875 158.878906 51.882812 158.878906 C 51.878906 158.878906 51.878906 158.878906 51.875 158.878906 C 50.039062 158.875 48.441406 157.625 48 155.835938 L 28.363281 76 L 13.226562 76 L 37.015625 163.957031 C 37.125 164.480469 39.953125 180 50.816406 180 C 61.761719 180 64.507812 164.453125 64.535156 164.296875 L 80.128906 104.035156 C 80.585938 102.273438 82.175781 101.039062 84 101.039062 Z M 84 101.039062 "/>
</g>
</svg>
