<?xml version="1.0" standalone="no"?>
<!DOCTYPE svg PUBLIC "-//W3C//DTD SVG 20010904//EN"
 "http://www.w3.org/TR/2001/REC-SVG-20010904/DTD/svg10.dtd">
<svg version="1.0" xmlns="http://www.w3.org/2000/svg"
 width="96.000000pt" height="96.000000pt" viewBox="0 0 96.000000 96.000000"
 preserveAspectRatio="xMidYMid meet">

<g transform="translate(0.000000,96.000000) scale(0.100000,-0.100000)"
fill="#000000" stroke="none">
<path d="M180 903 c-4 -67 1 -669 6 -703 l6 -48 190 -7 c160 -6 188 -10 184
-22 -4 -8 -9 -31 -12 -52 l-6 -37 56 0 c60 0 58 -1 71 63 10 49 29 47 61 -8
31 -52 49 -61 59 -29 4 13 15 20 31 20 20 0 24 5 24 28 0 15 -8 41 -18 57 -22
36 -32 95 -37 230 -15 346 -14 338 -53 397 -21 30 -49 69 -64 86 l-27 32 -235
0 c-130 0 -236 -3 -236 -7z m458 -44 c3 -24 -1 -27 -44 -33 -26 -3 -83 -6
-128 -6 -104 0 -186 -10 -186 -23 0 -6 35 -7 93 -3 50 3 130 7 177 8 l85 3 3
-32 c3 -29 6 -31 60 -39 l57 -9 6 -75 c4 -41 7 -131 8 -199 l1 -124 -21 19
c-20 18 -37 19 -238 16 -133 -2 -220 -7 -226 -13 -7 -7 36 -10 142 -8 83 2
154 1 158 -2 3 -4 -6 -14 -20 -23 -15 -10 -25 -26 -25 -41 l0 -25 -119 0 c-69
0 -122 -4 -126 -10 -4 -6 37 -10 117 -10 l123 0 10 -32 10 -33 -170 3 c-93 2
-172 6 -175 9 -3 2 -6 164 -8 359 l-3 354 218 -2 218 -3 3 -26z m71 -55 c18
-25 32 -47 30 -48 -2 -2 -20 -1 -40 1 -36 5 -36 6 -35 49 0 24 4 44 7 44 3 0
20 -21 38 -46z m5 -523 c38 -42 -9 -102 -67 -87 -22 5 -27 12 -27 38 0 60 57
90 94 49z"/>
<path d="M370 723 c-41 -2 -79 -9 -85 -15 -7 -7 30 -9 129 -4 77 3 168 6 203
6 35 0 63 4 63 10 0 10 -134 11 -310 3z"/>
<path d="M405 635 c-79 -7 -114 -14 -102 -20 10 -4 55 -5 100 -1 45 3 128 9
185 13 56 3 102 10 102 14 0 12 -135 9 -285 -6z"/>
<path d="M285 540 c-4 -7 63 -10 194 -10 127 0 201 4 201 10 0 14 -387 14
-395 0z"/>
<path d="M453 453 c-221 -5 -216 -23 6 -23 171 0 231 6 231 21 0 5 -17 8 -37
7 -21 -1 -111 -4 -200 -5z"/>
</g>
</svg>
