<?xml version="1.0" encoding="UTF-8"?>
<svg xmlns="http://www.w3.org/2000/svg" xmlns:xlink="http://www.w3.org/1999/xlink" width="256pt" height="256pt" viewBox="0 0 256 256" version="1.1">
<defs>
<linearGradient id="linear0" gradientUnits="userSpaceOnUse" x1="83.309807" y1="43" x2="83.309807" y2="148.731628" gradientTransform="matrix(1.488372,0,0,1.488372,0,0)">
<stop offset="0" style="stop-color:rgb(100%,91.37255%,90.588236%);stop-opacity:1;"/>
<stop offset="1" style="stop-color:rgb(86.666667%,43.137255%,58.823532%);stop-opacity:1;"/>
</linearGradient>
<linearGradient id="linear1" gradientUnits="userSpaceOnUse" x1="86" y1="13.4375" x2="86" y2="159.011307" gradientTransform="matrix(1.488372,0,0,1.488372,0,0)">
<stop offset="0" style="stop-color:rgb(100%,50.588238%,46.666667%);stop-opacity:1;"/>
<stop offset="1" style="stop-color:rgb(69.411767%,16.470589%,35.686275%);stop-opacity:1;"/>
</linearGradient>
</defs>
<g id="surface5890029">
<path style=" stroke:none;fill-rule:nonzero;fill:url(#linear0);" d="M 100.03125 224.027344 C 100.019531 222.554688 100.007812 216.179688 99.996094 210.210938 L 99.984375 204.011719 C 73.066406 207.671875 66.550781 188.890625 66.480469 188.691406 C 62.742188 179.21875 57.636719 176.511719 57.414062 176.398438 L 56.921875 176.113281 C 55.066406 174.847656 50.15625 171.484375 51.550781 167.058594 C 52.8125 163.070312 57.695312 162.660156 59.914062 162.730469 C 72.210938 163.59375 78.4375 174.644531 78.691406 175.113281 C 84.96875 185.867188 94.546875 184.757812 100.726562 182.488281 C 101.304688 179.734375 102.195312 177.207031 103.363281 174.976562 C 83.539062 171.460938 61.078125 160.914062 61.078125 122.558594 C 61.078125 112.027344 64.359375 102.71875 70.84375 94.84375 C 69.394531 90.019531 67.746094 80.179688 72.628906 67.785156 L 73.324219 66.015625 L 75.132812 65.441406 C 76.796875 64.890625 85.882812 62.945312 104.566406 75.171875 C 112.28125 73.195312 120.445312 72.175781 128.863281 72.136719 C 137.324219 72.175781 145.496094 73.195312 153.222656 75.171875 C 171.890625 62.941406 180.960938 64.910156 182.628906 65.441406 L 184.433594 66.019531 L 185.128906 67.78125 C 190.027344 80.171875 188.378906 90.015625 186.933594 94.84375 C 193.402344 102.695312 196.683594 112.007812 196.683594 122.558594 C 196.683594 160.925781 174.199219 171.4375 154.332031 174.90625 C 156.582031 179.167969 157.804688 184.515625 157.804688 190.421875 C 157.804688 197.152344 157.777344 219.234375 157.742188 224.027344 L 149.742188 223.972656 C 149.777344 219.1875 149.804688 197.140625 149.804688 190.414062 C 149.804688 180.648438 146.03125 176.328125 144.402344 174.921875 L 137.484375 168.933594 L 146.578125 167.921875 C 167.398438 165.609375 188.679688 158.402344 188.679688 122.554688 C 188.679688 113.234375 185.570312 105.113281 179.441406 98.410156 L 177.71875 96.535156 L 178.6875 94.1875 C 179.351562 92.582031 182.265625 84.421875 178.515625 73.023438 C 175.484375 73.203125 168.242188 74.632812 156.179688 82.8125 L 154.644531 83.847656 L 152.863281 83.355469 C 145.410156 81.285156 137.113281 80.171875 128.859375 80.132812 C 120.652344 80.171875 112.363281 81.285156 104.925781 83.355469 L 103.144531 83.847656 L 101.613281 82.8125 C 89.535156 74.636719 82.28125 73.195312 79.234375 73.015625 C 75.496094 84.421875 78.410156 92.582031 79.074219 94.1875 L 80.042969 96.535156 L 78.328125 98.410156 C 72.183594 105.136719 69.070312 113.261719 69.070312 122.554688 C 69.070312 158.386719 90.3125 165.636719 111.089844 168 L 120.097656 169.023438 L 113.265625 174.984375 C 111.777344 176.285156 109.144531 179.433594 108.246094 185.890625 L 107.949219 188.089844 L 105.925781 188.996094 C 100.640625 191.363281 82.566406 197.644531 71.730469 179.054688 C 71.671875 178.957031 69.554688 175.277344 65.722656 172.828125 C 68.308594 175.382812 71.457031 179.519531 73.996094 185.976562 C 74.261719 186.734375 79.425781 200.464844 103.117188 195.332031 L 107.941406 194.285156 L 107.988281 210.195312 C 108 216.144531 108.011719 222.5 108.023438 223.972656 Z M 100.03125 224.027344 "/>
<path style=" stroke:none;fill-rule:nonzero;fill:url(#linear1);" d="M 128 232 C 70.652344 232 24 185.347656 24 128 C 24 70.652344 70.652344 24 128 24 C 185.347656 24 232 70.652344 232 128 C 232 185.347656 185.347656 232 128 232 Z M 128 32 C 75.066406 32 32 75.066406 32 128 C 32 180.933594 75.066406 224 128 224 C 180.933594 224 224 180.933594 224 128 C 224 75.066406 180.933594 32 128 32 Z M 128 32 "/>
</g>
</svg>
