<?xml version="1.0" encoding="UTF-8"?>
<svg xmlns="http://www.w3.org/2000/svg" xmlns:xlink="http://www.w3.org/1999/xlink" width="256pt" height="256pt" viewBox="0 0 256 256" version="1.1">
<defs>
<linearGradient id="linear0" gradientUnits="userSpaceOnUse" x1="86" y1="26.702999" x2="86" y2="140.274063" gradientTransform="matrix(1.488372,0,0,1.488372,0,0)">
<stop offset="0" style="stop-color:rgb(49.019608%,89.019608%,76.47059%);stop-opacity:1;"/>
<stop offset="1" style="stop-color:rgb(4.313726%,63.921571%,37.64706%);stop-opacity:1;"/>
</linearGradient>
<linearGradient id="linear1" gradientUnits="userSpaceOnUse" x1="104.551811" y1="26.702999" x2="104.551811" y2="140.274063" gradientTransform="matrix(1.488372,0,0,1.488372,0,0)">
<stop offset="0" style="stop-color:rgb(49.019608%,89.019608%,76.47059%);stop-opacity:1;"/>
<stop offset="1" style="stop-color:rgb(4.313726%,63.921571%,37.64706%);stop-opacity:1;"/>
</linearGradient>
<linearGradient id="linear2" gradientUnits="userSpaceOnUse" x1="112.875" y1="48.318562" x2="112.875" y2="57.856499" gradientTransform="matrix(4,0,0,4,0,0)">
<stop offset="0" style="stop-color:rgb(85.09804%,96.862745%,93.333334%);stop-opacity:1;"/>
<stop offset="1" style="stop-color:rgb(17.647059%,94.509804%,60.784316%);stop-opacity:1;"/>
</linearGradient>
</defs>
<g id="surface5888851">
<path style=" stroke:none;fill-rule:nonzero;fill:url(#linear0);" d="M 230.378906 64.34375 C 229.234375 62.980469 227.332031 62.542969 225.699219 63.261719 C 223.242188 64.34375 220.71875 65.308594 218.136719 66.136719 C 221.433594 61.996094 223.984375 57.273438 225.632812 52.171875 C 226.140625 50.589844 225.625 48.863281 224.328125 47.824219 C 223.03125 46.78125 221.230469 46.644531 219.804688 47.492188 C 212.695312 51.65625 205.117188 54.644531 197.238281 56.382812 C 188.976562 48.488281 177.796875 44 166.21875 44 C 141.542969 44 121.464844 63.910156 121.464844 88.386719 C 121.464844 90.003906 121.550781 91.628906 121.730469 93.242188 C 92.09375 90.425781 64.574219 75.871094 45.625 52.832031 C 44.796875 51.824219 43.550781 51.292969 42.222656 51.382812 C 40.925781 51.484375 39.753906 52.210938 39.089844 53.335938 C 35.117188 60.050781 33.011719 67.789062 33.011719 75.707031 C 33.011719 85.496094 36.238281 94.828125 42 102.429688 C 40.832031 101.9375 39.683594 101.386719 38.5625 100.78125 C 37.320312 100.113281 35.820312 100.136719 34.613281 100.863281 C 33.398438 101.589844 32.660156 102.890625 32.660156 104.300781 L 32.660156 104.777344 C 32.660156 119.609375 40.132812 133.066406 51.804688 141.191406 C 51.757812 141.183594 51.707031 141.171875 51.660156 141.164062 C 50.261719 140.902344 48.863281 141.410156 47.941406 142.472656 C 47.015625 143.53125 46.714844 144.996094 47.148438 146.335938 C 51.875 160.929688 63.742188 171.820312 78.222656 175.664062 C 66.210938 182.746094 52.621094 186.453125 38.394531 186.453125 C 35.253906 186.453125 32.144531 186.269531 29.164062 185.902344 C 27.296875 185.667969 25.539062 186.777344 24.910156 188.53125 C 24.285156 190.292969 24.960938 192.257812 26.539062 193.257812 C 45.910156 205.519531 68.257812 212 91.160156 212 C 166.246094 212 211.117188 151.523438 211.117188 93.054688 C 211.117188 91.972656 211.097656 90.890625 211.058594 89.816406 C 218.6875 84.125 225.269531 77.179688 230.644531 69.140625 C 231.632812 67.660156 231.523438 65.707031 230.378906 64.34375 Z M 204.667969 84.570312 C 203.550781 85.359375 202.914062 86.664062 202.980469 88.03125 C 203.058594 89.691406 203.117188 91.367188 203.117188 93.054688 C 203.117188 147.589844 161.238281 204 91.160156 204 C 75.230469 204 59.585938 200.640625 45.164062 194.191406 C 62.066406 192.90625 77.957031 186.792969 91.464844 176.320312 C 92.804688 175.28125 93.34375 173.511719 92.808594 171.902344 C 92.273438 170.296875 90.785156 169.195312 89.089844 169.160156 C 75.5625 168.898438 63.472656 161.351562 57.296875 149.820312 C 61.757812 149.972656 66.109375 149.425781 70.398438 148.246094 C 72.1875 147.757812 73.402344 146.101562 73.339844 144.246094 C 73.273438 142.390625 71.941406 140.832031 70.125 140.46875 C 55.03125 137.460938 43.597656 125.375 41.148438 110.671875 C 45.636719 112.285156 50.335938 113.195312 55.019531 113.339844 C 56.855469 113.382812 58.410156 112.257812 58.953125 110.554688 C 59.496094 108.851562 58.84375 106.996094 57.355469 106.007812 C 47.125 99.214844 41.019531 87.886719 41.019531 75.707031 C 41.019531 71.167969 41.859375 66.707031 43.476562 62.558594 C 64.753906 85.867188 94.613281 100.003906 126.332031 101.601562 C 127.644531 101.6875 128.800781 101.136719 129.601562 100.171875 C 130.40625 99.207031 130.710938 97.921875 130.429688 96.699219 C 129.789062 93.960938 129.46875 91.164062 129.46875 88.390625 C 129.46875 68.328125 145.957031 52.003906 166.222656 52.003906 C 176.371094 52.003906 186.140625 56.191406 193.023438 63.488281 C 193.964844 64.480469 195.347656 64.925781 196.691406 64.671875 C 202.230469 63.605469 207.648438 61.988281 212.882812 59.835938 C 209.96875 63.863281 206.222656 67.296875 201.847656 69.890625 C 200.21875 70.859375 199.492188 72.832031 200.105469 74.628906 C 200.714844 76.414062 202.492188 77.546875 204.375 77.304688 C 208.183594 76.835938 211.921875 76.136719 215.5625 75.203125 C 212.238281 78.664062 208.601562 81.796875 204.667969 84.570312 Z M 204.667969 84.570312 "/>
<path style=" stroke:none;fill-rule:nonzero;fill:url(#linear1);" d="M 123.089844 183.144531 L 125.570312 190.742188 C 154.0625 181.441406 176.867188 159.089844 188.140625 129.425781 L 180.664062 126.578125 C 174.542969 142.683594 158.933594 171.4375 123.089844 183.144531 Z M 123.089844 183.144531 "/>
<path style=" stroke:none;fill-rule:nonzero;fill:url(#linear2);" d="M 176 80 C 176 84.417969 172.417969 88 168 88 C 163.582031 88 160 84.417969 160 80 C 160 75.582031 163.582031 72 168 72 C 172.417969 72 176 75.582031 176 80 Z M 176 80 "/>
</g>
</svg>
